<?xml version="1.0" encoding="utf-8"?>
<!-- Generator: Adobe Illustrator 28.1.0, SVG Export Plug-In . SVG Version: 6.00 Build 0)  -->
<svg version="1.1" id="Layer_1" xmlns="http://www.w3.org/2000/svg" xmlns:xlink="http://www.w3.org/1999/xlink" x="0px" y="0px"
	 viewBox="0 0 50.3 25" style="enable-background:new 0 0 50.3 25;" xml:space="preserve">
<style type="text/css">
	.st0{fill:#FFFFFF;}
</style>
<g>
	<polygon class="st0" points="18.9,10.1 23,10.1 22.7,11.5 18.5,11.5 	"/>
	<path class="st0" d="M21.7,0c-2.5,0-4.6,1.7-5.2,4.1L11.7,25h6.9c2.5,0,4.6-1.7,5.2-4.1L28.7,0H21.7L21.7,0z M24.6,11.6
		c-0.3,1.1-1.2,1.8-2.3,1.8h-4.2l-0.3,1.5c-0.3,1.1-1.2,1.9-2.4,1.9l2-8.7h6.2c0.9,0,1.6,0.9,1.4,1.8L24.6,11.6L24.6,11.6z"/>
	<path class="st0" d="M8.2,3.8c-2.5,0-4.6,1.7-5.2,4.1L0,21.2h6.9c2.5,0,4.6-1.7,5.2-4.1l3.1-13.2L8.2,3.8L8.2,3.8z M10.6,10.1H6.3
		L6,11.5H11c-0.3,1.1-1.3,1.9-2.4,1.9H5.5L5.2,15c-0.3,1.1-1.2,1.9-2.4,1.9l1.6-6.8C4.7,9,5.6,8.2,6.8,8.2H13
		C12.7,9.3,11.7,10.1,10.6,10.1L10.6,10.1z"/>
	<path class="st0" d="M33.4,3.8c-2.5,0-4.6,1.7-5.2,4.1l-3.1,13.2h6.9c2.5,0,4.6-1.7,5.2-4.1l3.1-13.2C40.4,3.8,33.4,3.8,33.4,3.8z
		 M37.5,10.1h-3.2L33.2,15c-0.2,1.1-1.2,1.8-2.3,1.8h-0.1l1.6-6.7H31c-0.9,0-1.6-0.9-1.4-1.8l0-0.2h6.5c0.9,0,1.6,0.9,1.4,1.8
		C37.5,9.9,37.5,10.1,37.5,10.1z"/>
</g>
<g>
	<path class="st0" d="M39.9,18.3c-0.8,0-1.4,0.6-1.4,1.4c0,0.8,0.6,1.4,1.4,1.4s1.4-0.6,1.4-1.4C41.4,18.9,40.7,18.3,39.9,18.3
		L39.9,18.3z M39.9,20.8c-0.6,0-1.1-0.5-1.1-1.1s0.5-1.1,1.1-1.1c0.6,0,1.1,0.5,1.1,1.1S40.5,20.8,39.9,20.8L39.9,20.8z"/>
	<path class="st0" d="M40,19.9h-0.2v0.5h-0.3V19H40c0.2,0,0.3,0,0.4,0.1c0.1,0.1,0.1,0.2,0.1,0.3c0,0.1,0,0.2-0.1,0.2
		s-0.1,0.1-0.2,0.2l0.3,0.6v0h-0.3C40.2,20.4,40,19.9,40,19.9z M39.7,19.7H40c0.1,0,0.1,0,0.2-0.1c0,0,0.1-0.1,0.1-0.2
		c0-0.1,0-0.1-0.1-0.2c0,0-0.1-0.1-0.2-0.1h-0.2L39.7,19.7L39.7,19.7z"/>
</g>
<g>
	<path class="st0" d="M44.8,16.8v-6.6h1v6.6H44.8z"/>
	<path class="st0" d="M49.7,16.3c-0.4,0.4-0.9,0.5-1.6,0.5c-0.7,0-1.2-0.1-1.6-0.3l0.4-0.9c0.4,0.2,0.8,0.3,1.2,0.3
		c0.4,0,0.7-0.1,0.9-0.3c0.2-0.2,0.3-0.4,0.3-0.7c0-0.4-0.4-0.8-1.1-1.1c-0.5-0.2-0.9-0.5-1.1-0.7c-0.4-0.3-0.6-0.8-0.6-1.3
		c0-0.6,0.2-1,0.6-1.4c0.4-0.3,0.9-0.5,1.5-0.5s1.1,0.1,1.5,0.3l-0.3,0.8C49.4,11.1,49,11,48.6,11c-0.3,0-0.6,0.1-0.8,0.2
		s-0.3,0.4-0.3,0.7c0,0.4,0.4,0.8,1.1,1.1c0.5,0.2,0.9,0.5,1.1,0.7c0.4,0.3,0.5,0.8,0.5,1.3C50.3,15.5,50.1,16,49.7,16.3L49.7,16.3z
		"/>
</g>
</svg>
